HIERARCHY
ROOT Hips
{
	OFFSET 0.00000 0.00000 0.00000
	CHANNELS 6 Xposition Yposition Zposition Yrotation Zrotation Xrotation 
	JOINT Lumbar
	{
		OFFSET 0 0 0
		CHANNELS 3 Zrotation Xrotation Yrotation
		JOINT Neck
		{
			OFFSET 0.00 0.2701 0.00
			CHANNELS 3 Zrotation Xrotation Yrotation
			End Site
			{
				OFFSET 0.00 0.1379 0.00
			}
		}
		JOINT RightShoulder
		{
			OFFSET 0.0119 0.2289 0.1181
			CHANNELS 3 Zrotation Xrotation Yrotation
			JOINT RightElbow
			{
				OFFSET 0.00 -0.1475 0.00
				CHANNELS 2 Zrotation Yrotation
				JOINT RightWrist
				{
					OFFSET 0.00 -0.1605 0.00
					CHANNELS 2 Zrotation Xrotation
					End Site
					{
						OFFSET 0.0040 -0.1068 0.0006
					}
				}
			}
		}
		JOINT LeftShoulder
		{
			OFFSET 0.0119 0.2289 -0.1181
			CHANNELS 3 Zrotation Xrotation Yrotation
			JOINT LeftElbow
			{
				OFFSET 0.00 -0.1475 0.00
				CHANNELS 2 Zrotation Yrotation
				JOINT LeftWrist
				{
					OFFSET 0.00 -0.1605 0.00
					CHANNELS 2 Zrotation Xrotation
					End Site
					{
						OFFSET 0.0040 -0.1068 -0.0006
					}
				}
			}
		}
	}
	JOINT RightHip
	{
		OFFSET 0.0316 -0.0424 0.0458
		CHANNELS 3 Zrotation Xrotation Yrotation
		JOINT RightKnee
		{
			OFFSET 0.00 -0.2438 0.00
			CHANNELS 1 Zrotation
			JOINT RightAnkle
			{
				OFFSET 0.00 -0.2449 0.00
				CHANNELS 3 Zrotation Xrotation Yrotation
				End Site
				{
					OFFSET 0.1237 -0.0542 0.0051
				}
			}
		}
	}
	JOINT LeftHip
	{
		OFFSET 0.0316 -0.0424 -0.0458
		CHANNELS 3 Zrotation Xrotation Yrotation
		JOINT LeftKnee
		{
			OFFSET 0.00 -0.2438 0.00
			CHANNELS 1 Zrotation
			JOINT LeftAnkle
			{
				OFFSET 0.00 -0.2449 0.00
				CHANNELS 3 Zrotation Xrotation Yrotation
				End Site
				{
					OFFSET 0.1237 -0.0542 -0.0051
				}
			}
		}
	}
}
MOTION
Frames: 16
Frame Time: 0.02
-0.45845 -0.01278 -0.36993 244.07128 -37.46925 -0.59171 45.49766 -1.34297 1.13041 -2.88834 0.75892 -2.11994 -12.27092 -21.91847 42.04688 107.65507 87.61637 6.98149 -0.54634 -11.78026 22.19714 -44.66581 111.53619 -106.39917 9.63388 -4.34474 53.01222 -0.12595 -4.44541 -33.9003 -7.0269 -1.24742 -2.87384 45.16967 14.14508 -0.62972 -20.96447 -8.9359 2.353 3.48586
-0.4531 -0.01248 -0.3693 243.14921 -37.5639 -0.69079 45.44443 -1.39115 0.75555 -2.90734 0.64474 -2.11994 -12.1028 -21.96469 42.24798 107.82623 87.82896 6.8869 0.30368 -11.0404 22.91292 -45.39896 111.85406 -106.55337 10.32675 -4.09999 53.62046 -0.38361 -3.94448 -34.24194 -7.08326 -1.22241 -2.86422 45.05539 13.71487 -0.43138 -20.84152 -8.83896 2.44993 3.52975
-0.44767 -0.01212 -0.36909 242.23383 -37.71669 -0.79867 45.36965 -1.43452 0.44291 -2.87378 0.50237 -2.11994 -11.89355 -21.98302 42.65877 107.98751 88.06671 6.6699 1.39574 -10.20419 23.76095 -46.28998 112.19812 -106.37348 10.92854 -3.84024 54.28836 -0.61979 -3.56201 -34.45786 -7.1482 -1.19274 -2.85303 44.99823 13.32238 -0.22644 -20.56816 -8.75998 2.52539 3.56466
-0.44227 -0.0118 -0.36872 241.31218 -37.84787 -0.90499 45.3018 -1.47914 0.10248 -2.85356 0.37261 -2.11994 -11.70065 -22.00719 42.99905 108.1563 88.29103 6.49706 2.34883 -9.43357 24.53976 -47.10613 112.52819 -106.33918 11.556 -3.59112 54.93111 -0.86374 -3.13595 -34.71632 -7.21016 -1.16425 -2.84212 44.93636 12.92556 0.02589 -20.38204 -8.67345 2.60549 3.60111
-0.43689 -0.01145 -0.36822 240.40628 -37.96088 -1.00065 45.2452 -1.52692 -0.24244 -2.87585 0.24012 -2.11994 -11.51412 -22.06106 43.24177 108.31451 88.52987 6.3687 3.4292 -8.56945 25.35929 -47.93923 112.86938 -106.32584 12.25184 -3.32398 55.57099 -1.11857 -2.67001 -35.03429 -7.26951 -1.13875 -2.8326 44.78775 12.47358 0.07573 -20.11256 -8.58486 2.70652 3.6479
-0.43147 -0.01113 -0.36809 239.46859 -38.12446 -1.12091 45.16089 -1.56727 -0.56109 -2.79929 0.10789 -2.11994 -11.3062 -22.04739 43.73085 108.4905 88.74192 6.12212 4.29996 -7.87599 26.12534 -48.77207 113.19234 -106.19339 12.78359 -3.09181 56.22654 -1.34369 -2.31573 -35.19847 -7.33529 -1.1067 -2.82015 44.83128 12.14514 0.53685 -19.98053 -8.50499 2.75974 3.6715
-0.42591 -0.0109 -0.36883 238.4391 -38.41653 -1.30463 44.99894 -1.58857 -0.83714 -2.44526 -0.01536 -2.11994 -11.04596 -21.83829 44.89732 108.73177 88.8759 5.55453 4.53325 -7.69956 26.70007 -49.5776 113.46318 -105.79173 12.87523 -2.95681 56.93923 -1.50446 -2.21874 -34.98028 -7.42342 -1.05278 -2.79789 45.40298 12.1579 2.23306 -20.2881 -8.44041 2.67837 3.62898
-0.42034 -0.0107 -0.36992 237.37797 -38.75645 -1.51303 44.81118 -1.60266 -1.08588 -1.99693 -0.13708 -2.11994 -10.76697 -21.56477 46.29482 108.98883 88.98076 4.87701 4.54632 -7.69481 27.21696 -50.37446 113.71331 -105.2868 12.80627 -2.85844 57.65928 -1.63359 -2.23311 -34.61123 -7.51633 -0.9935 -2.7732 46.16348 12.29233 4.32443 -20.73576 -8.38466 2.55103 3.56419
-0.41482 -0.01048 -0.37087 236.33186 -39.07243 -1.71197 44.63936 -1.61992 -1.33753 -1.60317 -0.25988 -2.11994 -10.49885 -21.33079 47.55483 109.22916 89.09685 4.26612 4.65934 -7.59703 27.76869 -51.16749 113.97011 -104.84345 12.81642 -2.74542 58.35774 -1.76883 -2.21051 -34.30252 -7.60261 -0.93989 -2.75099 46.82986 12.36512 6.16789 -21.10481 -8.32762 2.44994 3.51247
-0.40912 -0.01027 -0.37179 235.28122 -39.40055 -1.90476 44.44862 -1.63727 -1.6277 -1.1579 -0.38216 -2.11994 -10.21817 -21.05265 48.96056 109.50841 89.22266 3.58053 4.78198 -7.55807 28.29355 -52.00035 114.24088 -104.32449 12.79726 -2.62299 59.13803 -1.93814 -2.13565 -34.0188 -7.70817 -0.87215 -2.72274 47.53404 12.4656 8.29812 -21.53134 -8.25979 2.32572 3.44814
-0.4038 -0.01005 -0.37284 234.23507 -39.71299 -2.11491 44.2919 -1.65303 -1.83126 -0.79845 -0.50472 -2.11994 -9.96116 -20.85143 50.11343 109.71185 89.32064 3.02604 4.82844 -7.44002 28.85315 -52.74427 114.47549 -103.94541 12.80257 -2.52958 59.74546 -2.02939 -2.19315 -33.65546 -7.77442 -0.833 -2.70672 48.20277 12.53728 9.92722 -21.8737 -8.21623 2.23873 3.4047
-0.39951 -0.00978 -0.37417 233.18668 -39.97864 -2.37691 44.2318 -1.6638 -1.80868 -0.69703 -0.62847 -2.11994 -9.76215 -20.87994 50.523 109.69011 89.35141 2.86104 4.72294 -7.05066 29.57134 -53.25963 114.63033 -103.95781 12.91122 -2.50327 59.90186 -1.91161 -2.60011 -33.05363 -7.73233 -0.87088 -2.72352 48.73424 12.49581 10.05463 -21.94795 -8.23803 2.2687 3.42636
-0.39563 -0.0095 -0.37563 232.14835 -40.22503 -2.65356 44.20766 -1.67358 -1.69905 -0.68562 -0.75237 -2.11994 -9.58991 -20.98818 50.66708 109.59382 89.35467 2.83231 4.54662 -6.57847 30.31672 -53.68216 114.74657 -104.11994 13.05073 -2.50584 59.8783 -1.71674 -3.13366 -32.38817 -7.65028 -0.9383 -2.75299 49.22212 12.42175 9.66802 -21.93378 -8.28378 2.33728 3.4695
-0.39159 -0.00923 -0.37704 231.11969 -40.47452 -2.917 44.16946 -1.68545 -1.62542 -0.63493 -0.87603 -2.11994 -9.41365 -21.05873 50.92389 109.53956 89.36863 2.7414 4.39807 -6.15166 31.01719 -54.13662 114.87046 -104.22838 13.17936 -2.49779 59.91862 -1.558 -3.6014 -31.78856 -7.58548 -0.99445 -2.77775 49.72499 12.36485 9.53058 -21.96169 -8.31809 2.38646 3.50158
-0.38742 -0.00893 -0.37842 230.02857 -40.74953 -3.20922 44.12048 -1.69046 -1.56573 -0.57511 -1.00044 -2.11994 -9.20293 -21.13216 51.22164 109.4514 89.38878 2.64755 4.25924 -5.69745 31.85326 -54.63432 115.03532 -104.27251 13.29068 -2.47998 60.03556 -1.39331 -4.10836 -31.02654 -7.5244 -1.04158 -2.79815 50.25416 12.302 9.34107 -21.98608 -8.35497 2.44198 3.53841
-0.38363 -0.0087 -0.3799 229.07188 -40.96623 -3.44432 44.10313 -1.70922 -1.45685 -0.55557 -1.12327 -2.11994 -9.0698 -21.2206 51.36889 109.41597 89.3904 2.59377 4.08794 -5.27924 32.41395 -55.01983 115.10607 -104.4874 13.44545 -2.48944 59.94915 -1.22338 -4.56184 -30.5911 -7.44638 -1.11425 -2.8305 50.71658 12.24259 9.13294 -21.9954 -8.39219 2.49391 3.57068
